<?xml version="1.0"?>
<svg width="250mm" height="200mm" viewBox="0 0   2500    1500"
     xmlns="http://www.w3.org/2000/svg"
     xmlns:xlink="http://www.w3.org/1999/xlink"
     xmlns:ev="http://www.w3.org/2001/xml-events">
<g font-family="Verdana" font-size="8" >
  <line x1="   300" y1="   670" x2="   300" y2="   750" style = "stroke:silver  ;"/>
  <line x1="   300" y1="   670" x2="   300" y2="   830" style = "stroke:silver  ;"/>
  <line x1="   300" y1="   670" x2="   300" y2="   910" style = "stroke:silver  ;"/>
  <line x1="   300" y1="   670" x2="   300" y2="   990" style = "stroke:silver  ;"/>
  <line x1="   300" y1="   670" x2="   300" y2="  1070" style = "stroke:silver  ;"/>
  <line x1="   300" y1="   670" x2="   300" y2="  1150" style = "stroke:silver  ;"/>
  <line x1="   300" y1="   670" x2="   300" y2="  1230" style = "stroke:silver  ;"/>
  <line x1="   300" y1="   750" x2="   300" y2="   830" style = "stroke:silver  ;"/>
  <line x1="   300" y1="   750" x2="   300" y2="   910" style = "stroke:silver  ;"/>
  <line x1="   300" y1="   750" x2="   300" y2="   990" style = "stroke:silver  ;"/>
  <line x1="   300" y1="   750" x2="   300" y2="  1070" style = "stroke:silver  ;"/>
  <line x1="   300" y1="   750" x2="   300" y2="  1150" style = "stroke:silver  ;"/>
  <line x1="   300" y1="   750" x2="   300" y2="  1230" style = "stroke:silver  ;"/>
  <line x1="   300" y1="   830" x2="   300" y2="   910" style = "stroke:silver  ;"/>
  <line x1="   300" y1="   830" x2="   300" y2="   990" style = "stroke:silver  ;"/>
  <line x1="   300" y1="   830" x2="   300" y2="  1070" style = "stroke:silver  ;"/>
  <line x1="   300" y1="   830" x2="   300" y2="  1150" style = "stroke:silver  ;"/>
  <line x1="   300" y1="   830" x2="   300" y2="  1230" style = "stroke:silver  ;"/>
  <line x1="   300" y1="   910" x2="   300" y2="   990" style = "stroke:silver  ;"/>
  <line x1="   300" y1="   910" x2="   300" y2="  1070" style = "stroke:silver  ;"/>
  <line x1="   300" y1="   910" x2="   300" y2="  1150" style = "stroke:silver  ;"/>
  <line x1="   300" y1="   910" x2="   300" y2="  1230" style = "stroke:silver  ;"/>
  <line x1="   300" y1="   990" x2="   300" y2="  1070" style = "stroke:silver  ;"/>
  <line x1="   300" y1="   990" x2="   300" y2="  1150" style = "stroke:silver  ;"/>
  <line x1="   300" y1="   990" x2="   300" y2="  1230" style = "stroke:silver  ;"/>
  <line x1="   300" y1="  1070" x2="   300" y2="  1150" style = "stroke:silver  ;"/>
  <line x1="   300" y1="  1070" x2="   300" y2="  1230" style = "stroke:silver  ;"/>
  <line x1="   300" y1="  1150" x2="   300" y2="  1230" style = "stroke:silver  ;"/>
  <rect x="   200" y="   660" width="   200" height="    20" style = "fill:snow; stroke: Black;"/>     1
  <text x="   202" y="   673">OutdoorAir:NodeList</text>
  <rect x="   200" y="   740" width="   200" height="    20" style = "fill:snow; stroke: Black;"/>     2
  <text x="   202" y="   753">OutdoorAir:NodeList</text>
  <rect x="   200" y="   820" width="   200" height="    20" style = "fill:snow; stroke: Black;"/>     3
  <text x="   202" y="   833">OutdoorAir:NodeList</text>
  <rect x="   200" y="   900" width="   200" height="    20" style = "fill:snow; stroke: Black;"/>     4
  <text x="   202" y="   913">OutdoorAir:NodeList</text>
  <rect x="   200" y="   980" width="   200" height="    20" style = "fill:snow; stroke: Black;"/>     5
  <text x="   202" y="   993">OutdoorAir:NodeList</text>
  <rect x="   200" y="  1060" width="   200" height="    20" style = "fill:snow; stroke: Black;"/>     6
  <text x="   202" y="  1073">OutdoorAir:NodeList</text>
  <rect x="   200" y="  1140" width="   200" height="    20" style = "fill:snow; stroke: Black;"/>     7
  <text x="   202" y="  1153">OutdoorAir:NodeList</text>
  <rect x="   200" y="  1220" width="   200" height="    20" style = "fill:snow; stroke: Black;"/>     8
  <text x="   202" y="  1233">OutdoorAir:NodeList</text>
  <rect x="  1450" y="    20" width="   200" height="    20" style = "fill:chartreuse; stroke: Black;"/>    33
  <text x="  1452" y="    33">MAIN_ZONE_A_B_G_L</text>
  <rect x="  1200" y="    20" width="   200" height="    20" style = "fill:wheat; stroke: Black;"/>    41
  <text x="  1202" y="    33">FURNACE_DX_A_B_G_L ZONE SPLITTER</text>
  <rect x="  1200" y="   100" width="   200" height="    20" style = "fill:wheat; stroke: Black;"/>    42
  <text x="  1202" y="   113">FURNACE_DX_B_C_H_G ZONE SPLITTER</text>
  <rect x="  1200" y="   180" width="   200" height="    20" style = "fill:wheat; stroke: Black;"/>    43
  <text x="  1202" y="   193">FURNACE_DX_C_D_I_H ZONE SPLITTER</text>
  <rect x="  1200" y="   260" width="   200" height="    20" style = "fill:wheat; stroke: Black;"/>    44
  <text x="  1202" y="   273">FURNACE_DX_D_E_J_I ZONE SPLITTER</text>
  <rect x="  1200" y="   340" width="   200" height="    20" style = "fill:wheat; stroke: Black;"/>    45
  <text x="  1202" y="   353">FURNACE_DX_E_F_K_J ZONE SPLITTER</text>
  <rect x="  1200" y="   420" width="   200" height="    20" style = "fill:wheat; stroke: Black;"/>    46
  <text x="  1202" y="   433">FURNACE_DX_L_K_F_A ZONE SPLITTER</text>
  <rect x="  1200" y="   500" width="   200" height="    20" style = "fill:wheat; stroke: Black;"/>    47
  <text x="  1202" y="   513">FURNACE_DX_G_H_I_L ZONE SPLITTER</text>
  <rect x="  1200" y="   580" width="   200" height="    20" style = "fill:wheat; stroke: Black;"/>    48
  <text x="  1202" y="   593">FURNACE_DX_I_J_K_L ZONE SPLITTER</text>
  <rect x="  1700" y="    20" width="   200" height="    20" style = "fill:wheat; stroke: Black;"/>    49
  <text x="  1702" y="    33">FURNACE_DX_A_B_G_L ZONE MIXER</text>
  <rect x="  1700" y="   100" width="   200" height="    20" style = "fill:wheat; stroke: Black;"/>    50
  <text x="  1702" y="   113">FURNACE_DX_B_C_H_G ZONE MIXER</text>
  <rect x="  1700" y="   180" width="   200" height="    20" style = "fill:wheat; stroke: Black;"/>    51
  <text x="  1702" y="   193">FURNACE_DX_C_D_I_H ZONE MIXER</text>
  <rect x="  1700" y="   260" width="   200" height="    20" style = "fill:wheat; stroke: Black;"/>    52
  <text x="  1702" y="   273">FURNACE_DX_D_E_J_I ZONE MIXER</text>
  <rect x="  1700" y="   340" width="   200" height="    20" style = "fill:wheat; stroke: Black;"/>    53
  <text x="  1702" y="   353">FURNACE_DX_E_F_K_J ZONE MIXER</text>
  <rect x="  1700" y="   420" width="   200" height="    20" style = "fill:wheat; stroke: Black;"/>    54
  <text x="  1702" y="   433">FURNACE_DX_L_K_F_A ZONE MIXER</text>
  <rect x="  1700" y="   500" width="   200" height="    20" style = "fill:wheat; stroke: Black;"/>    55
  <text x="  1702" y="   513">FURNACE_DX_G_H_I_L ZONE MIXER</text>
  <rect x="  1700" y="   580" width="   200" height="    20" style = "fill:wheat; stroke: Black;"/>    56
  <text x="  1702" y="   593">FURNACE_DX_I_J_K_L ZONE MIXER</text>
  <rect x="   200" y="    20" width="   200" height="    20" style = "fill:lawngreen; stroke: Black;"/>    57
  <text x="   202" y="    33">FURNACE_DX_A_B_G_L OA MIXING BOX</text>
  <rect x="   200" y="   100" width="   200" height="    20" style = "fill:lawngreen; stroke: Black;"/>    58
  <text x="   202" y="   113">FURNACE_DX_B_C_H_G OA MIXING BOX</text>
  <rect x="   200" y="   180" width="   200" height="    20" style = "fill:lawngreen; stroke: Black;"/>    59
  <text x="   202" y="   193">FURNACE_DX_C_D_I_H OA MIXING BOX</text>
  <rect x="   200" y="   260" width="   200" height="    20" style = "fill:lawngreen; stroke: Black;"/>    60
  <text x="   202" y="   273">FURNACE_DX_D_E_J_I OA MIXING BOX</text>
  <rect x="   200" y="   340" width="   200" height="    20" style = "fill:lawngreen; stroke: Black;"/>    61
  <text x="   202" y="   353">FURNACE_DX_E_F_K_J OA MIXING BOX</text>
  <rect x="   200" y="   420" width="   200" height="    20" style = "fill:lawngreen; stroke: Black;"/>    62
  <text x="   202" y="   433">FURNACE_DX_L_K_F_A OA MIXING BOX</text>
  <rect x="   200" y="   500" width="   200" height="    20" style = "fill:lawngreen; stroke: Black;"/>    63
  <text x="   202" y="   513">FURNACE_DX_G_H_I_L OA MIXING BOX</text>
  <rect x="   200" y="   580" width="   200" height="    20" style = "fill:lawngreen; stroke: Black;"/>    64
  <text x="   202" y="   593">FURNACE_DX_I_J_K_L OA MIXING BOX</text>
  <rect x="   450" y="    20" width="   200" height="    20" style = "fill:silver; stroke: Black;"/>    73
  <text x="   452" y="    33">FURNACE_DX_A_B_G_L SUPPLY FAN</text>
  <rect x="   450" y="   100" width="   200" height="    20" style = "fill:silver; stroke: Black;"/>    74
  <text x="   452" y="   113">FURNACE_DX_B_C_H_G SUPPLY FAN</text>
  <rect x="   450" y="   180" width="   200" height="    20" style = "fill:silver; stroke: Black;"/>    75
  <text x="   452" y="   193">FURNACE_DX_C_D_I_H SUPPLY FAN</text>
  <rect x="   450" y="   260" width="   200" height="    20" style = "fill:silver; stroke: Black;"/>    76
  <text x="   452" y="   273">FURNACE_DX_D_E_J_I SUPPLY FAN</text>
  <rect x="   450" y="   340" width="   200" height="    20" style = "fill:silver; stroke: Black;"/>    77
  <text x="   452" y="   353">FURNACE_DX_E_F_K_J SUPPLY FAN</text>
  <rect x="   450" y="   420" width="   200" height="    20" style = "fill:silver; stroke: Black;"/>    78
  <text x="   452" y="   433">FURNACE_DX_L_K_F_A SUPPLY FAN</text>
  <rect x="   450" y="   500" width="   200" height="    20" style = "fill:silver; stroke: Black;"/>    79
  <text x="   452" y="   513">FURNACE_DX_G_H_I_L SUPPLY FAN</text>
  <rect x="   450" y="   580" width="   200" height="    20" style = "fill:silver; stroke: Black;"/>    80
  <text x="   452" y="   593">FURNACE_DX_I_J_K_L SUPPLY FAN</text>
  <rect x="   700" y="    20" width="   200" height="    20" style = "fill:salmon; stroke: Black;"/>    81
  <text x="   702" y="    33">FURNACE_DX_A_B_G_L HEATING COIL</text>
  <rect x="   700" y="   100" width="   200" height="    20" style = "fill:salmon; stroke: Black;"/>    82
  <text x="   702" y="   113">FURNACE_DX_B_C_H_G HEATING COIL</text>
  <rect x="   700" y="   180" width="   200" height="    20" style = "fill:salmon; stroke: Black;"/>    83
  <text x="   702" y="   193">FURNACE_DX_C_D_I_H HEATING COIL</text>
  <rect x="   700" y="   260" width="   200" height="    20" style = "fill:salmon; stroke: Black;"/>    84
  <text x="   702" y="   273">FURNACE_DX_D_E_J_I HEATING COIL</text>
  <rect x="   700" y="   340" width="   200" height="    20" style = "fill:salmon; stroke: Black;"/>    85
  <text x="   702" y="   353">FURNACE_DX_E_F_K_J HEATING COIL</text>
  <rect x="   700" y="   420" width="   200" height="    20" style = "fill:salmon; stroke: Black;"/>    86
  <text x="   702" y="   433">FURNACE_DX_L_K_F_A HEATING COIL</text>
  <rect x="   700" y="   500" width="   200" height="    20" style = "fill:salmon; stroke: Black;"/>    87
  <text x="   702" y="   513">FURNACE_DX_G_H_I_L HEATING COIL</text>
  <rect x="   700" y="   580" width="   200" height="    20" style = "fill:salmon; stroke: Black;"/>    88
  <text x="   702" y="   593">FURNACE_DX_I_J_K_L HEATING COIL</text>
  <rect x="   950" y="    20" width="   200" height="    20" style = "fill:skyblue; stroke: Black;"/>    89
  <text x="   952" y="    33">FURNACE_DX_A_B_G_L COOLING COIL</text>
  <rect x="   950" y="   100" width="   200" height="    20" style = "fill:skyblue; stroke: Black;"/>    90
  <text x="   952" y="   113">FURNACE_DX_B_C_H_G COOLING COIL</text>
  <rect x="   950" y="   180" width="   200" height="    20" style = "fill:skyblue; stroke: Black;"/>    91
  <text x="   952" y="   193">FURNACE_DX_C_D_I_H COOLING COIL</text>
  <rect x="   950" y="   260" width="   200" height="    20" style = "fill:skyblue; stroke: Black;"/>    92
  <text x="   952" y="   273">FURNACE_DX_D_E_J_I COOLING COIL</text>
  <rect x="   950" y="   340" width="   200" height="    20" style = "fill:skyblue; stroke: Black;"/>    93
  <text x="   952" y="   353">FURNACE_DX_E_F_K_J COOLING COIL</text>
  <rect x="   950" y="   420" width="   200" height="    20" style = "fill:skyblue; stroke: Black;"/>    94
  <text x="   952" y="   433">FURNACE_DX_L_K_F_A COOLING COIL</text>
  <rect x="   950" y="   500" width="   200" height="    20" style = "fill:skyblue; stroke: Black;"/>    95
  <text x="   952" y="   513">FURNACE_DX_G_H_I_L COOLING COIL</text>
  <rect x="   950" y="   580" width="   200" height="    20" style = "fill:skyblue; stroke: Black;"/>    96
  <text x="   952" y="   593">FURNACE_DX_I_J_K_L COOLING COIL</text>
  <rect x="  1450" y="   100" width="   200" height="    20" style = "fill:chartreuse; stroke: Black;"/>    97
  <text x="  1452" y="   113">MAIN_ZONE_B_C_H_G</text>
  <rect x="  1450" y="   180" width="   200" height="    20" style = "fill:chartreuse; stroke: Black;"/>    98
  <text x="  1452" y="   193">MAIN_ZONE_C_D_I_H</text>
  <rect x="  1450" y="   260" width="   200" height="    20" style = "fill:chartreuse; stroke: Black;"/>    99
  <text x="  1452" y="   273">MAIN_ZONE_D_E_J_I</text>
  <rect x="  1450" y="   340" width="   200" height="    20" style = "fill:chartreuse; stroke: Black;"/>   100
  <text x="  1452" y="   353">MAIN_ZONE_E_F_K_J</text>
  <rect x="  1450" y="   420" width="   200" height="    20" style = "fill:chartreuse; stroke: Black;"/>   101
  <text x="  1452" y="   433">MAIN_ZONE_L_K_F_A</text>
  <rect x="  1450" y="   500" width="   200" height="    20" style = "fill:chartreuse; stroke: Black;"/>   102
  <text x="  1452" y="   513">MAIN_ZONE_G_H_I_L</text>
  <rect x="  1450" y="   580" width="   200" height="    20" style = "fill:chartreuse; stroke: Black;"/>   103
  <text x="  1452" y="   593">MAIN_ZONE_I_J_K_L</text>
  <line x1="  1400" y1="    30" x2="  1450" y2="    30" style = "stroke: Black;"/>
  <line x1="  1400" y1="   110" x2="  1450" y2="   110" style = "stroke: Black;"/>
  <line x1="  1400" y1="   190" x2="  1450" y2="   190" style = "stroke: Black;"/>
  <line x1="  1400" y1="   270" x2="  1450" y2="   270" style = "stroke: Black;"/>
  <line x1="  1400" y1="   350" x2="  1450" y2="   350" style = "stroke: Black;"/>
  <line x1="  1400" y1="   430" x2="  1450" y2="   430" style = "stroke: Black;"/>
  <line x1="  1400" y1="   510" x2="  1450" y2="   510" style = "stroke: Black;"/>
  <line x1="  1400" y1="   590" x2="  1450" y2="   590" style = "stroke: Black;"/>
  <line x1="   400" y1="    30" x2="   450" y2="    30" style = "stroke: Black;"/>
  <line x1="   400" y1="   110" x2="   450" y2="   110" style = "stroke: Black;"/>
  <line x1="   400" y1="   190" x2="   450" y2="   190" style = "stroke: Black;"/>
  <line x1="   400" y1="   270" x2="   450" y2="   270" style = "stroke: Black;"/>
  <line x1="   400" y1="   350" x2="   450" y2="   350" style = "stroke: Black;"/>
  <line x1="   400" y1="   430" x2="   450" y2="   430" style = "stroke: Black;"/>
  <line x1="   400" y1="   510" x2="   450" y2="   510" style = "stroke: Black;"/>
  <line x1="   400" y1="   590" x2="   450" y2="   590" style = "stroke: Black;"/>
  <line x1="   650" y1="    30" x2="   700" y2="    30" style = "stroke: Black;"/>
  <line x1="   650" y1="   110" x2="   700" y2="   110" style = "stroke: Black;"/>
  <line x1="   650" y1="   190" x2="   700" y2="   190" style = "stroke: Black;"/>
  <line x1="   650" y1="   270" x2="   700" y2="   270" style = "stroke: Black;"/>
  <line x1="   650" y1="   350" x2="   700" y2="   350" style = "stroke: Black;"/>
  <line x1="   650" y1="   430" x2="   700" y2="   430" style = "stroke: Black;"/>
  <line x1="   650" y1="   510" x2="   700" y2="   510" style = "stroke: Black;"/>
  <line x1="   650" y1="   590" x2="   700" y2="   590" style = "stroke: Black;"/>
  <line x1="   900" y1="    30" x2="   950" y2="    30" style = "stroke: Black;"/>
  <line x1="   900" y1="   110" x2="   950" y2="   110" style = "stroke: Black;"/>
  <line x1="   900" y1="   190" x2="   950" y2="   190" style = "stroke: Black;"/>
  <line x1="   900" y1="   270" x2="   950" y2="   270" style = "stroke: Black;"/>
  <line x1="   900" y1="   350" x2="   950" y2="   350" style = "stroke: Black;"/>
  <line x1="   900" y1="   430" x2="   950" y2="   430" style = "stroke: Black;"/>
  <line x1="   900" y1="   510" x2="   950" y2="   510" style = "stroke: Black;"/>
  <line x1="   900" y1="   590" x2="   950" y2="   590" style = "stroke: Black;"/>
  <line x1="  1150" y1="    30" x2="  1200" y2="    30" style = "stroke: Black;"/>
  <line x1="  1150" y1="   110" x2="  1200" y2="   110" style = "stroke: Black;"/>
  <line x1="  1150" y1="   190" x2="  1200" y2="   190" style = "stroke: Black;"/>
  <line x1="  1150" y1="   270" x2="  1200" y2="   270" style = "stroke: Black;"/>
  <line x1="  1150" y1="   350" x2="  1200" y2="   350" style = "stroke: Black;"/>
  <line x1="  1150" y1="   430" x2="  1200" y2="   430" style = "stroke: Black;"/>
  <line x1="  1150" y1="   510" x2="  1200" y2="   510" style = "stroke: Black;"/>
  <line x1="  1150" y1="   590" x2="  1200" y2="   590" style = "stroke: Black;"/>
  <line x1="  1650" y1="    30" x2="  1700" y2="    30" style = "stroke: Black;"/>
  <line x1="  1650" y1="   110" x2="  1700" y2="   110" style = "stroke: Black;"/>
  <line x1="  1650" y1="   190" x2="  1700" y2="   190" style = "stroke: Black;"/>
  <line x1="  1650" y1="   270" x2="  1700" y2="   270" style = "stroke: Black;"/>
  <line x1="  1650" y1="   350" x2="  1700" y2="   350" style = "stroke: Black;"/>
  <line x1="  1650" y1="   430" x2="  1700" y2="   430" style = "stroke: Black;"/>
  <line x1="  1650" y1="   510" x2="  1700" y2="   510" style = "stroke: Black;"/>
  <line x1="  1650" y1="   590" x2="  1700" y2="   590" style = "stroke: Black;"/>
  <line x1="   200" y1="    30" x2="   175" y2="    30" style = "stroke: Black;"/>
  <line x1="   175" y1="    30" x2="   175" y2="     0" style = "stroke: Black;"/>
  <line x1="   175" y1="     0" x2="  1925" y2="     0" style = "stroke: Black;"/>
  <line x1="  1925" y1="     0" x2="  1925" y2="    30" style = "stroke: Black;"/>
  <line x1="  1925" y1="    30" x2="  1900" y2="    30" style = "stroke: Black;"/>
  <line x1="   200" y1="   110" x2="   175" y2="   110" style = "stroke: Black;"/>
  <line x1="   175" y1="   110" x2="   175" y2="    80" style = "stroke: Black;"/>
  <line x1="   175" y1="    80" x2="  1925" y2="    80" style = "stroke: Black;"/>
  <line x1="  1925" y1="    80" x2="  1925" y2="   110" style = "stroke: Black;"/>
  <line x1="  1925" y1="   110" x2="  1900" y2="   110" style = "stroke: Black;"/>
  <line x1="   200" y1="   190" x2="   175" y2="   190" style = "stroke: Black;"/>
  <line x1="   175" y1="   190" x2="   175" y2="   160" style = "stroke: Black;"/>
  <line x1="   175" y1="   160" x2="  1925" y2="   160" style = "stroke: Black;"/>
  <line x1="  1925" y1="   160" x2="  1925" y2="   190" style = "stroke: Black;"/>
  <line x1="  1925" y1="   190" x2="  1900" y2="   190" style = "stroke: Black;"/>
  <line x1="   200" y1="   270" x2="   175" y2="   270" style = "stroke: Black;"/>
  <line x1="   175" y1="   270" x2="   175" y2="   240" style = "stroke: Black;"/>
  <line x1="   175" y1="   240" x2="  1925" y2="   240" style = "stroke: Black;"/>
  <line x1="  1925" y1="   240" x2="  1925" y2="   270" style = "stroke: Black;"/>
  <line x1="  1925" y1="   270" x2="  1900" y2="   270" style = "stroke: Black;"/>
  <line x1="   200" y1="   350" x2="   175" y2="   350" style = "stroke: Black;"/>
  <line x1="   175" y1="   350" x2="   175" y2="   320" style = "stroke: Black;"/>
  <line x1="   175" y1="   320" x2="  1925" y2="   320" style = "stroke: Black;"/>
  <line x1="  1925" y1="   320" x2="  1925" y2="   350" style = "stroke: Black;"/>
  <line x1="  1925" y1="   350" x2="  1900" y2="   350" style = "stroke: Black;"/>
  <line x1="   200" y1="   430" x2="   175" y2="   430" style = "stroke: Black;"/>
  <line x1="   175" y1="   430" x2="   175" y2="   400" style = "stroke: Black;"/>
  <line x1="   175" y1="   400" x2="  1925" y2="   400" style = "stroke: Black;"/>
  <line x1="  1925" y1="   400" x2="  1925" y2="   430" style = "stroke: Black;"/>
  <line x1="  1925" y1="   430" x2="  1900" y2="   430" style = "stroke: Black;"/>
  <line x1="   200" y1="   510" x2="   175" y2="   510" style = "stroke: Black;"/>
  <line x1="   175" y1="   510" x2="   175" y2="   480" style = "stroke: Black;"/>
  <line x1="   175" y1="   480" x2="  1925" y2="   480" style = "stroke: Black;"/>
  <line x1="  1925" y1="   480" x2="  1925" y2="   510" style = "stroke: Black;"/>
  <line x1="  1925" y1="   510" x2="  1900" y2="   510" style = "stroke: Black;"/>
  <line x1="   200" y1="   590" x2="   175" y2="   590" style = "stroke: Black;"/>
  <line x1="   175" y1="   590" x2="   175" y2="   560" style = "stroke: Black;"/>
  <line x1="   175" y1="   560" x2="  1925" y2="   560" style = "stroke: Black;"/>
  <line x1="  1925" y1="   560" x2="  1925" y2="   590" style = "stroke: Black;"/>
  <line x1="  1925" y1="   590" x2="  1900" y2="   590" style = "stroke: Black;"/>
  <text x="   200" y="  1280">Unused Non-Parent Objects:</text>
  <text x="   220" y="  1300">OutdoorAir:Node</text>
  <text x="   220" y="  1320">OutdoorAir:Node</text>
  <text x="   220" y="  1340">OutdoorAir:Node</text>
  <text x="   220" y="  1360">OutdoorAir:Node</text>
  <text x="   220" y="  1380">OutdoorAir:Node</text>
  <text x="   220" y="  1400">OutdoorAir:Node</text>
  <text x="   220" y="  1420">OutdoorAir:Node</text>
  <text x="   220" y="  1440">OutdoorAir:Node</text>
  <text x="   220" y="  1460">FURNACE_DX_A_B_G_L SUPPLY AIR TEMP MANAGER</text>
  <text x="   220" y="  1480">FURNACE_DX_B_C_H_G SUPPLY AIR TEMP MANAGER</text>
  <text x="   220" y="  1500">FURNACE_DX_C_D_I_H SUPPLY AIR TEMP MANAGER</text>
  <text x="   220" y="  1520">FURNACE_DX_D_E_J_I SUPPLY AIR TEMP MANAGER</text>
  <text x="   220" y="  1540">FURNACE_DX_E_F_K_J SUPPLY AIR TEMP MANAGER</text>
  <text x="   220" y="  1560">FURNACE_DX_L_K_F_A SUPPLY AIR TEMP MANAGER</text>
  <text x="   220" y="  1580">FURNACE_DX_G_H_I_L SUPPLY AIR TEMP MANAGER</text>
  <text x="   220" y="  1600">FURNACE_DX_I_J_K_L SUPPLY AIR TEMP MANAGER</text>
  <text x="   220" y="  1620">FURNACE_DX_A_B_G_L COOLING COIL AIR TEMP MANAGER</text>
  <text x="   220" y="  1640">FURNACE_DX_B_C_H_G COOLING COIL AIR TEMP MANAGER</text>
  <text x="   220" y="  1660">FURNACE_DX_C_D_I_H COOLING COIL AIR TEMP MANAGER</text>
  <text x="   220" y="  1680">FURNACE_DX_D_E_J_I COOLING COIL AIR TEMP MANAGER</text>
  <text x="   220" y="  1700">FURNACE_DX_E_F_K_J COOLING COIL AIR TEMP MANAGER</text>
  <text x="   220" y="  1720">FURNACE_DX_L_K_F_A COOLING COIL AIR TEMP MANAGER</text>
  <text x="   220" y="  1740">FURNACE_DX_G_H_I_L COOLING COIL AIR TEMP MANAGER</text>
  <text x="   220" y="  1760">FURNACE_DX_I_J_K_L COOLING COIL AIR TEMP MANAGER</text>
  <text x="   220" y="  1780">FURNACE_DX_A_B_G_L OA CONTROLLER</text>
  <text x="   220" y="  1800">FURNACE_DX_B_C_H_G OA CONTROLLER</text>
  <text x="   220" y="  1820">FURNACE_DX_C_D_I_H OA CONTROLLER</text>
  <text x="   220" y="  1840">FURNACE_DX_D_E_J_I OA CONTROLLER</text>
  <text x="   220" y="  1860">FURNACE_DX_E_F_K_J OA CONTROLLER</text>
  <text x="   220" y="  1880">FURNACE_DX_L_K_F_A OA CONTROLLER</text>
  <text x="   220" y="  1900">FURNACE_DX_G_H_I_L OA CONTROLLER</text>
  <text x="   220" y="  1920">FURNACE_DX_I_J_K_L OA CONTROLLER</text>
  <text x="   200" y="  1960">
The following are not supported: objects related to controls, AirTerminal:SingleDuct:Uncontrolled, or ZoneHVAC:IdealLoadsAirSystem</text>
</g>
</svg>
